<?xml version="1.0"?>
<svg xmlns="http://www.w3.org/2000/svg" id="Outline" viewBox="0 0 512 512" width="512" height="512"><g id="_26-Cleaner" data-name="26-Cleaner"><path d="M443.271,291.272l-54.389-15.105a.053.053,0,0,1-.027-.022A24.012,24.012,0,0,0,368,264H352a7.946,7.946,0,0,0-3.657.89.047.047,0,0,1-.033,0l-2.171-.6a8.008,8.008,0,0,0-2.093-.291.045.045,0,0,1-.046-.046v-7.41a.047.047,0,0,1,.026-.042A71.654,71.654,0,0,0,384,192v-7.953a.047.047,0,0,1,.047-.047,31.976,31.976,0,0,0,27.689-47.929.047.047,0,0,1,.041-.071h44.175A8.048,8.048,0,0,0,464,127.952v-15.9A24.048,24.048,0,0,0,439.952,88H397a.049.049,0,0,1-.046-.036A96.17,96.17,0,0,0,303.486,16C250.477,16.281,208,60.149,208,113.158v11.12a.049.049,0,0,1-.023.041A31.988,31.988,0,0,0,223.953,184a.047.047,0,0,1,.047.047V192a71.652,71.652,0,0,0,39.974,64.5.047.047,0,0,1,.026.042v7.409a.045.045,0,0,1-.046.046,8.008,8.008,0,0,0-2.093.291l-2.171.6a.047.047,0,0,1-.033,0A7.946,7.946,0,0,0,256,264H240a24.012,24.012,0,0,0-20.855,12.145.052.052,0,0,1-.028.022L164.73,291.272A72.21,72.21,0,0,0,112,360.65v127.3A8.048,8.048,0,0,0,120.048,496h367.9A8.048,8.048,0,0,0,496,487.952V360.65A72.21,72.21,0,0,0,443.271,291.272ZM360.048,280h7.9A8.048,8.048,0,0,1,376,288.048v111.9a.049.049,0,0,1-.048.048h-15.9a.049.049,0,0,1-.048-.048v-119.9A.049.049,0,0,1,360.048,280ZM264,280.3l.82-.227a40,40,0,0,0,78.36,0l.82.227v70.9c0,21.869-17.219,40.294-39.082,40.787A40.044,40.044,0,0,1,264,352ZM296,264h16a72,72,0,0,0,15.942-1.789.048.048,0,0,1,.058.047v9.116c0,14.14-11.578,25.549-25.683,24.568A24.033,24.033,0,0,1,280,272v-9.743a.047.047,0,0,1,.058-.046A72.022,72.022,0,0,0,296,264Zm88-96.05v-31.9a.05.05,0,0,1,.05-.05,16,16,0,0,1,0,32A.05.05,0,0,1,384,167.95ZM439.952,104A8.048,8.048,0,0,1,448,112.048v7.9a.049.049,0,0,1-.048.048h-47.9a.049.049,0,0,1-.048-.048V112c0-2.677-.116-5.327-.332-7.948a.048.048,0,0,1,.048-.052ZM224,112a80.09,80.09,0,0,1,80.742-80C348.81,32.405,384,69,384,113.067v6.885a.049.049,0,0,1-.048.048H343.234a.048.048,0,0,1-.047-.038,40,40,0,0,0-78.374,0,.048.048,0,0,1-.047.038H224.048a.049.049,0,0,1-.048-.048Zm102.559,8H281.441a.049.049,0,0,1-.046-.066,24,24,0,0,1,45.21,0A.049.049,0,0,1,326.559,120ZM208,152a16.018,16.018,0,0,1,15.95-16,.05.05,0,0,1,.05.05v31.9a.05.05,0,0,1-.05.05A16.018,16.018,0,0,1,208,152Zm32,40V136.048a.049.049,0,0,1,.048-.048h127.9a.049.049,0,0,1,.048.048V192a55.969,55.969,0,0,1-56,56H296a55.967,55.967,0,0,1-56-56Zm-8,96.048A8.048,8.048,0,0,1,240.048,280h7.9a.049.049,0,0,1,.048.048v119.9a.049.049,0,0,1-.048.048h-15.9a.049.049,0,0,1-.048-.048Zm-104,72.6a56.164,56.164,0,0,1,41.011-53.962l46.928-13.033a.047.047,0,0,1,.061.046v65.825a24.6,24.6,0,0,1-5.657,15.96A23.889,23.889,0,0,1,192,384h-7.952A8.048,8.048,0,0,0,176,392.048v87.9a.049.049,0,0,1-.048.048h-47.9a.049.049,0,0,1-.048-.048Zm64,119.3v-79.9a.047.047,0,0,1,.047-.047,39.7,39.7,0,0,0,23.877-7.937.047.047,0,0,1,.076.038v15.851A8.048,8.048,0,0,0,224.048,416h31.9A8.048,8.048,0,0,0,264,407.952v-16.7a.047.047,0,0,1,.081-.033,55.875,55.875,0,0,0,79.838,0,.047.047,0,0,1,.081.033v16.7A8.048,8.048,0,0,0,352.048,416h31.9A8.048,8.048,0,0,0,392,407.952v-15.88a.046.046,0,0,1,.075-.037A39.793,39.793,0,0,0,415.952,400a.047.047,0,0,1,.048.047v79.9a.049.049,0,0,1-.048.048h-223.9A.049.049,0,0,1,192,479.952ZM479.952,480h-47.9a.049.049,0,0,1-.048-.048v-87.9A8.048,8.048,0,0,0,423.952,384h-7.9A24.048,24.048,0,0,1,392,359.952V293.7a.048.048,0,0,1,.061-.046l46.929,13.034A56.162,56.162,0,0,1,480,360.65v119.3A.049.049,0,0,1,479.952,480Z"/><rect x="264" y="152" width="16" height="16" rx="0.048"/><rect x="328" y="152" width="16" height="16" rx="0.048"/><path d="M280,207.952A8.048,8.048,0,0,0,288.048,216h31.9A8.048,8.048,0,0,0,328,207.952v-7.9a.049.049,0,0,0-.048-.048h-47.9a.049.049,0,0,0-.048.048Z"/><path d="M168,16H40A24.028,24.028,0,0,0,16,40V56a8,8,0,0,0,5.356,7.543l-.012.019C19.088,66.943,16,71.576,16,80s3.088,13.055,5.344,16.437C23.112,99.088,24,100.419,24,104s-.888,4.909-2.656,7.563C19.088,114.941,16,119.573,16,128s3.088,13.056,5.343,16.439C23.112,147.087,24,148.419,24,152s-.888,4.91-2.657,7.564C19.088,162.944,16,167.577,16,176a8,8,0,0,0,8,8H80V488a8,8,0,0,0,8,8h8V184h16V296h16V184h40a8,8,0,0,0,8-8c0-3.578.888-4.91,2.657-7.563C180.912,165.054,184,160.421,184,152s-3.088-13.057-5.343-16.439C176.888,132.905,176,131.573,176,128s.888-4.908,2.656-7.561C180.912,117.051,184,112.419,184,104s-3.088-13.055-5.344-16.436C176.888,84.906,176,83.575,176,80s.888-4.908,2.656-7.561A29.778,29.778,0,0,0,182.907,64H184a8,8,0,0,0,8-8V40A24.028,24.028,0,0,0,168,16ZM32,40a8.009,8.009,0,0,1,8-8H168a8.009,8.009,0,0,1,8,8v8H32ZM93.344,96.435C95.112,99.088,96,100.419,96,104s-.888,4.909-2.656,7.563C91.088,114.941,88,119.573,88,128s3.088,13.056,5.343,16.439C95.112,147.087,96,148.419,96,152s-.888,4.91-2.657,7.564A29.8,29.8,0,0,0,89.093,168H70.947A26.446,26.446,0,0,0,76,152c0-8.423-3.088-13.057-5.343-16.439C68.888,132.905,68,131.573,68,128s.888-4.908,2.656-7.561C72.912,117.051,76,112.419,76,104S72.912,90.941,70.656,87.56C68.888,84.906,68,83.575,68,80s.888-4.908,2.656-7.561A29.778,29.778,0,0,0,74.907,64H93.052A26.428,26.428,0,0,0,88,80C88,88.42,91.088,93.053,93.344,96.435ZM34.657,135.559C32.888,132.905,32,131.573,32,128s.888-4.908,2.656-7.561C36.912,117.051,40,112.419,40,104S36.912,90.941,34.656,87.56C32.888,84.906,32,83.575,32,80s.888-4.908,2.656-7.561A29.778,29.778,0,0,0,38.907,64H57.052A26.428,26.428,0,0,0,52,80c0,8.422,3.088,13.055,5.344,16.437C59.112,99.088,60,100.419,60,104s-.888,4.909-2.656,7.563C55.088,114.941,52,119.573,52,128s3.088,13.056,5.343,16.439C59.112,147.087,60,148.419,60,152s-.888,4.91-2.657,7.564A29.8,29.8,0,0,0,53.093,168H34.947A26.453,26.453,0,0,0,40,152C40,143.575,36.912,138.941,34.657,135.559ZM106.947,168A26.446,26.446,0,0,0,112,152c0-8.423-3.088-13.057-5.343-16.439C104.888,132.905,104,131.573,104,128s.888-4.908,2.656-7.561C108.912,117.051,112,112.419,112,104s-3.088-13.055-5.344-16.436C104.888,84.906,104,83.575,104,80s.888-4.908,2.656-7.561A29.778,29.778,0,0,0,110.907,64h18.145A26.428,26.428,0,0,0,124,80c0,8.422,3.088,13.055,5.344,16.437C131.112,99.088,132,100.419,132,104s-.888,4.909-2.656,7.563C127.088,114.941,124,119.573,124,128s3.088,13.056,5.343,16.439C131.112,147.087,132,148.419,132,152s-.888,4.91-2.657,7.564a29.8,29.8,0,0,0-4.25,8.438H106.947Zm58.4-71.565C167.112,99.088,168,100.419,168,104s-.888,4.909-2.656,7.563C163.088,114.941,160,119.573,160,128s3.088,13.056,5.343,16.439C167.112,147.087,168,148.419,168,152s-.888,4.91-2.657,7.564a29.8,29.8,0,0,0-4.25,8.438H142.947A26.446,26.446,0,0,0,148,152c0-8.423-3.088-13.057-5.343-16.439C140.888,132.905,140,131.573,140,128s.888-4.908,2.656-7.561C144.912,117.051,148,112.419,148,104s-3.088-13.055-5.344-16.436C140.888,84.906,140,83.575,140,80s.888-4.908,2.656-7.561A29.778,29.778,0,0,0,146.907,64h18.145A26.428,26.428,0,0,0,160,80C160,88.42,163.088,93.053,165.344,96.435Z"/></g></svg>
